<svg xmlns="http://www.w3.org/2000/svg" width="16" height="16" viewBox="0 0 16 16"><path fill="currentColor" d="M4.456.734a1.75 1.75 0 0 1 2.826.504l.613 1.327a3.081 3.081 0 0 0 2.084 1.707l2.454.584c1.332.317 1.8 1.972.832 2.94L11.06 9.099l.763 3.515a1.75 1.75 0 0 1-2.518 1.931L7.999 13.6l-1.306.844a1.75 1.75 0 0 1-2.518-1.931l.763-3.515-2.205-2.203c-.968-.968-.5-2.623.832-2.94l2.454-.584a3.08 3.08 0 0 0 2.084-1.707l.613-1.327a1.75 1.75 0 0 1 0 0ZM8 1.604 7.386 2.93a4.582 4.582 0 0 1-3.099 2.54l-2.454.585.001.002 2.454 2.453c.31.31.44.754.348 1.179l-.763 3.515 1.306-.844A1.75 1.75 0 0 1 7 12.53l1.306.844-1.307-3.515a1.75 1.75 0 0 1 .348-1.179l2.454-2.453.001-.002-2.454-.585A4.582 4.582 0 0 1 4.25 3.1L8 1.604Z"/></svg>
